<svg width="686" height="360" viewBox="0 0 686 360" fill="none" xmlns="http://www.w3.org/2000/svg">
<path fill-rule="evenodd" clip-rule="evenodd" d="M181.6 135C192.8 141.133 201.6 150.066 208 161.8H272.4C263.6 134.066 247.6 112.6 224.4 97.3998C201.2 81.9331 173.867 74.1998 142.4 74.1998C115.733 74.1998 91.4667 80.3331 69.6 92.5998C48 104.6 30.9333 121.533 18.4 143.4C6.13333 165 0 189.533 0 217C0 244.466 6.13333 269 18.4 290.6C18.7403 291.186 19.084 291.769 19.4311 292.349L73.1118 273.583C71.4337 271.111 69.8631 268.517 68.4 265.8C61.2 251.933 57.6 235.666 57.6 217C57.6 198.866 61.2 182.866 68.4 169C75.6 155.133 85.6 144.466 98.4 137C111.2 129.533 125.867 125.8 142.4 125.8C157.333 125.8 170.4 128.866 181.6 135ZM106.277 301.386C117.668 306.462 130.509 309 144.8 309C166.133 309 183.6 303.4 197.2 292.2C210.8 280.733 219.733 264.866 224 244.6H222.354L279.2 216.79V250.6C275.467 270.066 267.467 288.066 255.2 304.6C242.933 321.133 227.067 334.466 207.6 344.6C188.4 354.466 166.8 359.4 142.8 359.4C115.867 359.4 91.4667 353.4 69.6 341.4C59.1601 335.471 49.7792 328.452 41.4574 320.343L51 327.5L104 302.5L106.277 301.386ZM31.4691 309.472L22.5667 297.354C25.3425 301.591 28.31 305.63 31.4691 309.472ZM278.444 201.8L156.016 244.6H128V201.8H278.444ZM307.592 202.901C307.218 207.385 307.031 211.952 307.031 216.6C307.031 244.066 313.431 268.733 326.231 290.6C339.031 312.2 356.365 329.133 378.231 341.4C400.098 353.666 424.098 359.8 450.231 359.8C476.365 359.8 500.365 353.666 522.231 341.4C544.098 329.133 561.298 312.2 573.831 290.6C586.631 268.733 593.031 244.066 593.031 216.6C593.031 189.4 586.631 165 573.831 143.4C566.193 130.073 556.821 118.529 545.715 108.768L487.437 131.691C489.901 132.803 492.3 134.04 494.631 135.4C507.431 142.866 517.431 153.666 524.631 167.8C531.831 181.666 535.431 197.933 535.431 216.6C535.431 235.266 531.831 251.666 524.631 265.8C517.431 279.933 507.431 290.866 494.631 298.6C481.831 306.066 467.031 309.8 450.231 309.8C433.431 309.8 418.498 306.066 405.431 298.6C392.631 290.866 382.631 279.933 375.431 265.8C368.231 251.666 364.631 235.266 364.631 216.6C364.631 202.094 366.805 189.037 371.154 177.429L312.5 200.5L307.592 202.901ZM375.965 166.769L326.5 185L309.037 191.105C311.837 173.921 317.568 158.019 326.231 143.4C339.031 121.533 356.365 104.466 378.231 92.1998C400.098 79.9331 424.098 73.7998 450.231 73.7998C476.631 73.7998 500.631 79.9331 522.231 92.1998C529.998 96.5565 537.175 101.519 543.764 107.087L501.5 120.5L479.495 128.61C470.528 125.67 460.773 124.2 450.231 124.2C433.431 124.2 418.498 127.933 405.431 135.4C392.944 142.684 383.122 153.14 375.965 166.769Z" fill="url(#paint0_linear_292_47)"/>
<path d="M567.109 83.9931L551.159 84.349L544.601 81.2303L550.749 75.9115L571.908 80.244L567.109 83.9931Z" fill="white" stroke="white"/>
<path d="M634.531 63.7228L616.849 74.1463L619.782 121.059L625.944 116.76L632.376 85.5533L637.454 83.6691C637.964 81.195 636.416 78.2773 635.579 77.1276L633.156 77.5074L634.531 63.7228Z" fill="white" stroke="white"/>
<path d="M586.341 38.0555L539.33 32.285L530.728 38.7486L595.475 62.6025L569.319 84.8424L548.35 86.0283L541.453 90.3874L558.763 93.0905L563.651 98.0288L565.646 98.2736L564.527 107.391L570.395 104.351L574.328 95.8688L627.915 64.56C675.991 36.6815 686.237 22.1676 685.35 18.3954C668.911 16.609 636.311 34.6452 622.066 43.8866L600.982 41.2986L603.396 38.1244C602.988 33.9097 599.963 31.5333 598.502 30.8719L586.341 38.0555Z" fill="white" stroke="white"/>
<defs>
<linearGradient id="paint0_linear_292_47" x1="296.516" y1="73.7998" x2="296.516" y2="359.8" gradientUnits="userSpaceOnUse">
<stop offset="0.265625" stop-color="#FDFDFD" stop-opacity="0.82"/>
<stop offset="1" stop-color="#00D1FF" stop-opacity="0"/>
</linearGradient>
</defs>
</svg>
